<mxfile host="app.diagrams.net" modified="2024-04-23T13:50:34.731Z" agent="Mozilla/5.0 (Windows NT 10.0; Win64; x64) AppleWebKit/537.36 (KHTML, like Gecko) Chrome/123.0.0.0 Safari/537.36" etag="6K29254RsrMbZxvoWo0d" version="24.2.8" type="device">
  <diagram name="Page-1" id="c4acf3e9-155e-7222-9cf6-157b1a14988f">
    <mxGraphModel dx="2284" dy="1846" grid="1" gridSize="10" guides="1" tooltips="1" connect="1" arrows="1" fold="1" page="1" pageScale="1" pageWidth="850" pageHeight="1100" background="none" math="0" shadow="0">
      <root>
        <mxCell id="0" />
        <mxCell id="1" parent="0" />
        <mxCell id="-uqub06eaImzmK1k1aiv-31" style="edgeStyle=orthogonalEdgeStyle;rounded=0;orthogonalLoop=1;jettySize=auto;html=1;" parent="1" source="-uqub06eaImzmK1k1aiv-2" target="-uqub06eaImzmK1k1aiv-25" edge="1">
          <mxGeometry relative="1" as="geometry">
            <Array as="points">
              <mxPoint x="610" y="-653" />
              <mxPoint x="610" y="-653" />
            </Array>
          </mxGeometry>
        </mxCell>
        <mxCell id="-uqub06eaImzmK1k1aiv-2" value="PolyTrade Hub" style="html=1;whiteSpace=wrap;" parent="1" vertex="1">
          <mxGeometry x="260" y="-720" width="215" height="134" as="geometry" />
        </mxCell>
        <mxCell id="-uqub06eaImzmK1k1aiv-4" value="User" style="swimlane;fontStyle=0;childLayout=stackLayout;horizontal=1;startSize=26;fillColor=none;horizontalStack=0;resizeParent=1;resizeParentMax=0;resizeLast=0;collapsible=1;marginBottom=0;whiteSpace=wrap;html=1;" parent="1" vertex="1">
          <mxGeometry x="-250" y="-1010" width="140" height="158" as="geometry" />
        </mxCell>
        <mxCell id="-uqub06eaImzmK1k1aiv-5" value="Логин" style="text;strokeColor=none;fillColor=none;align=left;verticalAlign=top;spacingLeft=4;spacingRight=4;overflow=hidden;rotatable=0;points=[[0,0.5],[1,0.5]];portConstraint=eastwest;whiteSpace=wrap;html=1;" parent="-uqub06eaImzmK1k1aiv-4" vertex="1">
          <mxGeometry y="26" width="140" height="26" as="geometry" />
        </mxCell>
        <mxCell id="-uqub06eaImzmK1k1aiv-6" value="пароль" style="text;strokeColor=none;fillColor=none;align=left;verticalAlign=top;spacingLeft=4;spacingRight=4;overflow=hidden;rotatable=0;points=[[0,0.5],[1,0.5]];portConstraint=eastwest;whiteSpace=wrap;html=1;" parent="-uqub06eaImzmK1k1aiv-4" vertex="1">
          <mxGeometry y="52" width="140" height="26" as="geometry" />
        </mxCell>
        <mxCell id="-uqub06eaImzmK1k1aiv-7" value="Почта(Email)&lt;div&gt;&lt;br&gt;&lt;/div&gt;&lt;div&gt;Имя пользователя&lt;/div&gt;" style="text;strokeColor=none;fillColor=none;align=left;verticalAlign=top;spacingLeft=4;spacingRight=4;overflow=hidden;rotatable=0;points=[[0,0.5],[1,0.5]];portConstraint=eastwest;whiteSpace=wrap;html=1;" parent="-uqub06eaImzmK1k1aiv-4" vertex="1">
          <mxGeometry y="78" width="140" height="80" as="geometry" />
        </mxCell>
        <mxCell id="-uqub06eaImzmK1k1aiv-12" style="edgeStyle=orthogonalEdgeStyle;rounded=0;orthogonalLoop=1;jettySize=auto;html=1;entryX=1;entryY=0.5;entryDx=0;entryDy=0;" parent="1" source="-uqub06eaImzmK1k1aiv-2" edge="1">
          <mxGeometry relative="1" as="geometry">
            <mxPoint x="9.800000000000011" y="-670" as="sourcePoint" />
            <mxPoint x="-189.95999999999998" y="-852" as="targetPoint" />
            <Array as="points">
              <mxPoint x="-190" y="-670" />
            </Array>
          </mxGeometry>
        </mxCell>
        <mxCell id="-uqub06eaImzmK1k1aiv-13" value="Категории" style="swimlane;fontStyle=0;childLayout=stackLayout;horizontal=1;startSize=26;fillColor=none;horizontalStack=0;resizeParent=1;resizeParentMax=0;resizeLast=0;collapsible=1;marginBottom=0;whiteSpace=wrap;html=1;" parent="1" vertex="1">
          <mxGeometry x="620" y="-920" width="140" height="110" as="geometry" />
        </mxCell>
        <mxCell id="-uqub06eaImzmK1k1aiv-14" value="Транспорт" style="text;strokeColor=none;fillColor=none;align=left;verticalAlign=top;spacingLeft=4;spacingRight=4;overflow=hidden;rotatable=0;points=[[0,0.5],[1,0.5]];portConstraint=eastwest;whiteSpace=wrap;html=1;" parent="-uqub06eaImzmK1k1aiv-13" vertex="1">
          <mxGeometry y="26" width="140" height="26" as="geometry" />
        </mxCell>
        <mxCell id="-uqub06eaImzmK1k1aiv-15" value="Электроника" style="text;strokeColor=none;fillColor=none;align=left;verticalAlign=top;spacingLeft=4;spacingRight=4;overflow=hidden;rotatable=0;points=[[0,0.5],[1,0.5]];portConstraint=eastwest;whiteSpace=wrap;html=1;" parent="-uqub06eaImzmK1k1aiv-13" vertex="1">
          <mxGeometry y="52" width="140" height="26" as="geometry" />
        </mxCell>
        <mxCell id="-uqub06eaImzmK1k1aiv-16" value="Личные вещи" style="text;strokeColor=none;fillColor=none;align=left;verticalAlign=top;spacingLeft=4;spacingRight=4;overflow=hidden;rotatable=0;points=[[0,0.5],[1,0.5]];portConstraint=eastwest;whiteSpace=wrap;html=1;" parent="-uqub06eaImzmK1k1aiv-13" vertex="1">
          <mxGeometry y="78" width="140" height="32" as="geometry" />
        </mxCell>
        <mxCell id="-uqub06eaImzmK1k1aiv-18" style="edgeStyle=orthogonalEdgeStyle;rounded=0;orthogonalLoop=1;jettySize=auto;html=1;exitX=0.75;exitY=0;exitDx=0;exitDy=0;entryX=0;entryY=0.5;entryDx=0;entryDy=0;" parent="1" source="-uqub06eaImzmK1k1aiv-2" target="-uqub06eaImzmK1k1aiv-16" edge="1">
          <mxGeometry relative="1" as="geometry" />
        </mxCell>
        <mxCell id="-uqub06eaImzmK1k1aiv-19" value="Корзина" style="swimlane;fontStyle=0;childLayout=stackLayout;horizontal=1;startSize=26;fillColor=none;horizontalStack=0;resizeParent=1;resizeParentMax=0;resizeLast=0;collapsible=1;marginBottom=0;whiteSpace=wrap;html=1;" parent="1" vertex="1">
          <mxGeometry x="650" y="-170" width="140" height="90" as="geometry" />
        </mxCell>
        <mxCell id="-uqub06eaImzmK1k1aiv-21" value="Отложенные товары" style="text;strokeColor=none;fillColor=none;align=left;verticalAlign=top;spacingLeft=4;spacingRight=4;overflow=hidden;rotatable=0;points=[[0,0.5],[1,0.5]];portConstraint=eastwest;whiteSpace=wrap;html=1;" parent="-uqub06eaImzmK1k1aiv-19" vertex="1">
          <mxGeometry y="26" width="140" height="26" as="geometry" />
        </mxCell>
        <mxCell id="-uqub06eaImzmK1k1aiv-34" style="edgeStyle=orthogonalEdgeStyle;rounded=0;orthogonalLoop=1;jettySize=auto;html=1;exitX=0;exitY=0.5;exitDx=0;exitDy=0;entryX=0;entryY=0.75;entryDx=0;entryDy=0;" parent="-uqub06eaImzmK1k1aiv-19" source="-uqub06eaImzmK1k1aiv-22" target="-uqub06eaImzmK1k1aiv-19" edge="1">
          <mxGeometry relative="1" as="geometry" />
        </mxCell>
        <mxCell id="-uqub06eaImzmK1k1aiv-22" value="Общая стоимость заказов" style="text;strokeColor=none;fillColor=none;align=left;verticalAlign=top;spacingLeft=4;spacingRight=4;overflow=hidden;rotatable=0;points=[[0,0.5],[1,0.5]];portConstraint=eastwest;whiteSpace=wrap;html=1;" parent="-uqub06eaImzmK1k1aiv-19" vertex="1">
          <mxGeometry y="52" width="140" height="38" as="geometry" />
        </mxCell>
        <mxCell id="-uqub06eaImzmK1k1aiv-23" value="Избранное" style="swimlane;fontStyle=0;childLayout=stackLayout;horizontal=1;startSize=26;fillColor=none;horizontalStack=0;resizeParent=1;resizeParentMax=0;resizeLast=0;collapsible=1;marginBottom=0;whiteSpace=wrap;html=1;" parent="1" vertex="1">
          <mxGeometry x="670" y="-710" width="140" height="104" as="geometry" />
        </mxCell>
        <mxCell id="-uqub06eaImzmK1k1aiv-24" value="Любимые товары" style="text;strokeColor=none;fillColor=none;align=left;verticalAlign=top;spacingLeft=4;spacingRight=4;overflow=hidden;rotatable=0;points=[[0,0.5],[1,0.5]];portConstraint=eastwest;whiteSpace=wrap;html=1;" parent="-uqub06eaImzmK1k1aiv-23" vertex="1">
          <mxGeometry y="26" width="140" height="26" as="geometry" />
        </mxCell>
        <mxCell id="-uqub06eaImzmK1k1aiv-25" value="объявления" style="text;align=left;verticalAlign=top;spacingLeft=4;spacingRight=4;overflow=hidden;rotatable=0;points=[[0,0.5],[1,0.5]];portConstraint=eastwest;whiteSpace=wrap;html=1;labelBackgroundColor=none;" parent="-uqub06eaImzmK1k1aiv-23" vertex="1">
          <mxGeometry y="52" width="140" height="26" as="geometry" />
        </mxCell>
        <mxCell id="-uqub06eaImzmK1k1aiv-26" value="+ field: type" style="text;strokeColor=none;fillColor=none;align=left;verticalAlign=top;spacingLeft=4;spacingRight=4;overflow=hidden;rotatable=0;points=[[0,0.5],[1,0.5]];portConstraint=eastwest;whiteSpace=wrap;html=1;" parent="-uqub06eaImzmK1k1aiv-23" vertex="1">
          <mxGeometry y="78" width="140" height="26" as="geometry" />
        </mxCell>
        <mxCell id="-uqub06eaImzmK1k1aiv-39" style="edgeStyle=orthogonalEdgeStyle;rounded=0;orthogonalLoop=1;jettySize=auto;html=1;exitX=1;exitY=0.25;exitDx=0;exitDy=0;entryX=1.021;entryY=-0.038;entryDx=0;entryDy=0;entryPerimeter=0;" parent="-uqub06eaImzmK1k1aiv-23" source="-uqub06eaImzmK1k1aiv-23" target="-uqub06eaImzmK1k1aiv-24" edge="1">
          <mxGeometry relative="1" as="geometry" />
        </mxCell>
        <mxCell id="-uqub06eaImzmK1k1aiv-42" style="edgeStyle=orthogonalEdgeStyle;rounded=0;orthogonalLoop=1;jettySize=auto;html=1;exitX=1;exitY=0.25;exitDx=0;exitDy=0;entryX=1;entryY=0.5;entryDx=0;entryDy=0;" parent="1" source="-uqub06eaImzmK1k1aiv-27" target="-uqub06eaImzmK1k1aiv-21" edge="1">
          <mxGeometry relative="1" as="geometry" />
        </mxCell>
        <mxCell id="K_f6P33MbHQHj_7KeZs9-22" value="" style="edgeStyle=orthogonalEdgeStyle;rounded=0;orthogonalLoop=1;jettySize=auto;html=1;" edge="1" parent="1" source="-uqub06eaImzmK1k1aiv-27" target="K_f6P33MbHQHj_7KeZs9-19">
          <mxGeometry relative="1" as="geometry" />
        </mxCell>
        <mxCell id="K_f6P33MbHQHj_7KeZs9-45" style="edgeStyle=orthogonalEdgeStyle;rounded=0;orthogonalLoop=1;jettySize=auto;html=1;exitX=0.75;exitY=0;exitDx=0;exitDy=0;entryX=0;entryY=0.5;entryDx=0;entryDy=0;" edge="1" parent="1" source="-uqub06eaImzmK1k1aiv-27" target="-uqub06eaImzmK1k1aiv-26">
          <mxGeometry relative="1" as="geometry" />
        </mxCell>
        <mxCell id="-uqub06eaImzmK1k1aiv-27" value="Заказы" style="swimlane;fontStyle=0;childLayout=stackLayout;horizontal=1;startSize=26;fillColor=none;horizontalStack=0;resizeParent=1;resizeParentMax=0;resizeLast=0;collapsible=1;marginBottom=0;whiteSpace=wrap;html=1;" parent="1" vertex="1">
          <mxGeometry x="450" y="-540" width="140" height="78" as="geometry" />
        </mxCell>
        <mxCell id="-uqub06eaImzmK1k1aiv-28" value="Товары" style="text;strokeColor=none;fillColor=none;align=left;verticalAlign=top;spacingLeft=4;spacingRight=4;overflow=hidden;rotatable=0;points=[[0,0.5],[1,0.5]];portConstraint=eastwest;whiteSpace=wrap;html=1;" parent="-uqub06eaImzmK1k1aiv-27" vertex="1">
          <mxGeometry y="26" width="140" height="26" as="geometry" />
        </mxCell>
        <mxCell id="-uqub06eaImzmK1k1aiv-29" value="Услуги" style="text;strokeColor=none;fillColor=none;align=left;verticalAlign=top;spacingLeft=4;spacingRight=4;overflow=hidden;rotatable=0;points=[[0,0.5],[1,0.5]];portConstraint=eastwest;whiteSpace=wrap;html=1;" parent="-uqub06eaImzmK1k1aiv-27" vertex="1">
          <mxGeometry y="52" width="140" height="26" as="geometry" />
        </mxCell>
        <mxCell id="-uqub06eaImzmK1k1aiv-45" style="edgeStyle=orthogonalEdgeStyle;rounded=0;orthogonalLoop=1;jettySize=auto;html=1;exitX=0.5;exitY=1;exitDx=0;exitDy=0;entryX=-0.029;entryY=0.269;entryDx=0;entryDy=0;entryPerimeter=0;" parent="1" source="-uqub06eaImzmK1k1aiv-2" target="-uqub06eaImzmK1k1aiv-22" edge="1">
          <mxGeometry relative="1" as="geometry" />
        </mxCell>
        <mxCell id="-uqub06eaImzmK1k1aiv-46" style="edgeStyle=orthogonalEdgeStyle;rounded=0;orthogonalLoop=1;jettySize=auto;html=1;exitX=0.75;exitY=1;exitDx=0;exitDy=0;entryX=-0.021;entryY=-0.077;entryDx=0;entryDy=0;entryPerimeter=0;" parent="1" source="-uqub06eaImzmK1k1aiv-2" target="-uqub06eaImzmK1k1aiv-29" edge="1">
          <mxGeometry relative="1" as="geometry" />
        </mxCell>
        <mxCell id="K_f6P33MbHQHj_7KeZs9-19" value="Подкласс Товары" style="swimlane;fontStyle=0;childLayout=stackLayout;horizontal=1;startSize=26;fillColor=none;horizontalStack=0;resizeParent=1;resizeParentMax=0;resizeLast=0;collapsible=1;marginBottom=0;whiteSpace=wrap;html=1;" vertex="1" parent="1">
          <mxGeometry x="450" y="-382" width="140" height="110" as="geometry" />
        </mxCell>
        <mxCell id="K_f6P33MbHQHj_7KeZs9-21" value="Покупаю&lt;div&gt;&lt;br&gt;&lt;/div&gt;&lt;div&gt;Продаю&lt;/div&gt;&lt;div&gt;&lt;br&gt;&lt;/div&gt;&lt;div&gt;Статус заказа&lt;/div&gt;" style="text;strokeColor=none;fillColor=none;align=left;verticalAlign=top;spacingLeft=4;spacingRight=4;overflow=hidden;rotatable=0;points=[[0,0.5],[1,0.5]];portConstraint=eastwest;whiteSpace=wrap;html=1;" vertex="1" parent="K_f6P33MbHQHj_7KeZs9-19">
          <mxGeometry y="26" width="140" height="84" as="geometry" />
        </mxCell>
        <mxCell id="K_f6P33MbHQHj_7KeZs9-30" style="edgeStyle=orthogonalEdgeStyle;rounded=0;orthogonalLoop=1;jettySize=auto;html=1;entryX=0.55;entryY=0.009;entryDx=0;entryDy=0;entryPerimeter=0;" edge="1" parent="1" target="-uqub06eaImzmK1k1aiv-13">
          <mxGeometry relative="1" as="geometry">
            <mxPoint x="510" y="-989" as="sourcePoint" />
          </mxGeometry>
        </mxCell>
        <mxCell id="K_f6P33MbHQHj_7KeZs9-39" value="Объявление" style="swimlane;fontStyle=0;childLayout=stackLayout;horizontal=1;startSize=26;fillColor=none;horizontalStack=0;resizeParent=1;resizeParentMax=0;resizeLast=0;collapsible=1;marginBottom=0;whiteSpace=wrap;html=1;" vertex="1" parent="1">
          <mxGeometry x="370" y="-1010" width="140" height="150" as="geometry">
            <mxRectangle x="370" y="-1024" width="110" height="30" as="alternateBounds" />
          </mxGeometry>
        </mxCell>
        <mxCell id="K_f6P33MbHQHj_7KeZs9-40" value="Размещение" style="text;strokeColor=none;fillColor=none;align=left;verticalAlign=top;spacingLeft=4;spacingRight=4;overflow=hidden;rotatable=0;points=[[0,0.5],[1,0.5]];portConstraint=eastwest;whiteSpace=wrap;html=1;" vertex="1" parent="K_f6P33MbHQHj_7KeZs9-39">
          <mxGeometry y="26" width="140" height="26" as="geometry" />
        </mxCell>
        <mxCell id="K_f6P33MbHQHj_7KeZs9-41" value="Описание" style="text;strokeColor=none;fillColor=none;align=left;verticalAlign=top;spacingLeft=4;spacingRight=4;overflow=hidden;rotatable=0;points=[[0,0.5],[1,0.5]];portConstraint=eastwest;whiteSpace=wrap;html=1;" vertex="1" parent="K_f6P33MbHQHj_7KeZs9-39">
          <mxGeometry y="52" width="140" height="26" as="geometry" />
        </mxCell>
        <mxCell id="K_f6P33MbHQHj_7KeZs9-42" value="Цена&amp;nbsp;&lt;div&gt;&lt;br&gt;&lt;/div&gt;&lt;div&gt;Адрес Владельца&lt;/div&gt;&lt;div&gt;&lt;br&gt;&lt;/div&gt;&lt;div&gt;&lt;br&gt;&lt;/div&gt;" style="text;strokeColor=none;fillColor=none;align=left;verticalAlign=top;spacingLeft=4;spacingRight=4;overflow=hidden;rotatable=0;points=[[0,0.5],[1,0.5]];portConstraint=eastwest;whiteSpace=wrap;html=1;" vertex="1" parent="K_f6P33MbHQHj_7KeZs9-39">
          <mxGeometry y="78" width="140" height="72" as="geometry" />
        </mxCell>
        <mxCell id="K_f6P33MbHQHj_7KeZs9-43" style="edgeStyle=orthogonalEdgeStyle;rounded=0;orthogonalLoop=1;jettySize=auto;html=1;exitX=1;exitY=0.5;exitDx=0;exitDy=0;entryX=0;entryY=0.5;entryDx=0;entryDy=0;" edge="1" parent="1" source="-uqub06eaImzmK1k1aiv-5" target="K_f6P33MbHQHj_7KeZs9-41">
          <mxGeometry relative="1" as="geometry">
            <Array as="points">
              <mxPoint x="160" y="-960" />
              <mxPoint x="265" y="-960" />
            </Array>
          </mxGeometry>
        </mxCell>
        <mxCell id="K_f6P33MbHQHj_7KeZs9-58" style="edgeStyle=orthogonalEdgeStyle;rounded=0;orthogonalLoop=1;jettySize=auto;html=1;exitX=1;exitY=0.25;exitDx=0;exitDy=0;entryX=1;entryY=0;entryDx=0;entryDy=0;" edge="1" parent="1" source="K_f6P33MbHQHj_7KeZs9-54" target="-uqub06eaImzmK1k1aiv-13">
          <mxGeometry relative="1" as="geometry">
            <Array as="points">
              <mxPoint x="740" y="-1047" />
              <mxPoint x="740" y="-920" />
            </Array>
          </mxGeometry>
        </mxCell>
        <mxCell id="K_f6P33MbHQHj_7KeZs9-54" value="Поисковая строка" style="html=1;whiteSpace=wrap;" vertex="1" parent="1">
          <mxGeometry x="190" y="-1060" width="110" height="50" as="geometry" />
        </mxCell>
        <mxCell id="K_f6P33MbHQHj_7KeZs9-55" style="edgeStyle=orthogonalEdgeStyle;rounded=0;orthogonalLoop=1;jettySize=auto;html=1;exitX=0.75;exitY=0;exitDx=0;exitDy=0;entryX=0.011;entryY=0.394;entryDx=0;entryDy=0;entryPerimeter=0;" edge="1" parent="1" source="-uqub06eaImzmK1k1aiv-4" target="K_f6P33MbHQHj_7KeZs9-54">
          <mxGeometry relative="1" as="geometry" />
        </mxCell>
        <mxCell id="K_f6P33MbHQHj_7KeZs9-61" style="edgeStyle=orthogonalEdgeStyle;rounded=0;orthogonalLoop=1;jettySize=auto;html=1;entryX=0.5;entryY=0;entryDx=0;entryDy=0;" edge="1" parent="1" target="K_f6P33MbHQHj_7KeZs9-62">
          <mxGeometry relative="1" as="geometry">
            <mxPoint x="10" y="-916" as="targetPoint" />
            <mxPoint x="-110" y="-916" as="sourcePoint" />
            <Array as="points">
              <mxPoint x="-110" y="-930" />
              <mxPoint x="115" y="-930" />
            </Array>
          </mxGeometry>
        </mxCell>
        <mxCell id="K_f6P33MbHQHj_7KeZs9-62" value="Уведомления" style="html=1;whiteSpace=wrap;" vertex="1" parent="1">
          <mxGeometry x="60" y="-910" width="110" height="50" as="geometry" />
        </mxCell>
        <mxCell id="K_f6P33MbHQHj_7KeZs9-63" style="edgeStyle=orthogonalEdgeStyle;rounded=0;orthogonalLoop=1;jettySize=auto;html=1;exitX=0;exitY=0.5;exitDx=0;exitDy=0;entryX=1;entryY=0.5;entryDx=0;entryDy=0;" edge="1" parent="1" source="K_f6P33MbHQHj_7KeZs9-42" target="K_f6P33MbHQHj_7KeZs9-62">
          <mxGeometry relative="1" as="geometry">
            <Array as="points">
              <mxPoint x="370" y="-885" />
            </Array>
          </mxGeometry>
        </mxCell>
        <mxCell id="K_f6P33MbHQHj_7KeZs9-64" value="Личные сообщения" style="html=1;whiteSpace=wrap;" vertex="1" parent="1">
          <mxGeometry x="-120" y="-790" width="110" height="50" as="geometry" />
        </mxCell>
        <mxCell id="K_f6P33MbHQHj_7KeZs9-65" style="edgeStyle=orthogonalEdgeStyle;rounded=0;orthogonalLoop=1;jettySize=auto;html=1;exitX=1;exitY=0.5;exitDx=0;exitDy=0;" edge="1" parent="1" source="-uqub06eaImzmK1k1aiv-7" target="K_f6P33MbHQHj_7KeZs9-64">
          <mxGeometry relative="1" as="geometry" />
        </mxCell>
        <mxCell id="K_f6P33MbHQHj_7KeZs9-70" style="edgeStyle=orthogonalEdgeStyle;rounded=0;orthogonalLoop=1;jettySize=auto;html=1;exitX=0.5;exitY=0;exitDx=0;exitDy=0;entryX=0.086;entryY=1.014;entryDx=0;entryDy=0;entryPerimeter=0;" edge="1" parent="1" source="-uqub06eaImzmK1k1aiv-2" target="K_f6P33MbHQHj_7KeZs9-42">
          <mxGeometry relative="1" as="geometry" />
        </mxCell>
        <mxCell id="K_f6P33MbHQHj_7KeZs9-71" style="edgeStyle=orthogonalEdgeStyle;rounded=0;orthogonalLoop=1;jettySize=auto;html=1;exitX=1;exitY=0.5;exitDx=0;exitDy=0;entryX=0.286;entryY=1;entryDx=0;entryDy=0;entryPerimeter=0;" edge="1" parent="1" source="K_f6P33MbHQHj_7KeZs9-64" target="K_f6P33MbHQHj_7KeZs9-42">
          <mxGeometry relative="1" as="geometry" />
        </mxCell>
      </root>
    </mxGraphModel>
  </diagram>
</mxfile>
